<?xml version="1.0" encoding="utf-8"?>
<!-- Generator: Adobe Illustrator 27.0.0, SVG Export Plug-In . SVG Version: 6.00 Build 0)  -->
<svg version="1.1" id="Layer_1" xmlns="http://www.w3.org/2000/svg" xmlns:xlink="http://www.w3.org/1999/xlink" x="0px" y="0px"
	 viewBox="0 0 1280 1024" style="enable-background:new 0 0 1280 1024;" xml:space="preserve">
<style type="text/css">
	.st0{fill:#FFFFFF;}
	.st1{fill:url(#SVGID_00000071543838129270020810000012607223883122513841_);}
	.st2{fill:url(#SVGID_00000046302064580507418270000000929371424983793043_);}
</style>
<g>
	<defs>
		<rect id="SVGID_1_" width="1280" height="1024"/>
	</defs>
	<clipPath id="SVGID_00000139284074044226203960000006721067024998238097_">
		<use xlink:href="#SVGID_1_"  style="overflow:visible;"/>
	</clipPath>
	<g transform="matrix(1 0 0 1 0 0)" style="clip-path:url(#SVGID_00000139284074044226203960000006721067024998238097_);">
		
			<image style="overflow:visible;" width="6250" height="4167" xlink:href="../3185111.jpg"  transform="matrix(0.2458 0 0 0.2458 -128.2258 -0.1915)">
		</image>
	</g>
</g>
<g>
	<path class="st0" d="M464.5,633.7l-4.4,11.5h-32.5l0-0.8h1.1c2.6,0,4.5-1.9,4.6-4.3v-37.9c-0.1-2.4-2.2-4.3-4.8-4.3h-0.9l0-0.8
		h16.6l0,0.8h-0.9c-2.6,0-4.7,1.9-4.8,4.3v40.5h12.5c7.7-0.1,10.4-3.9,12.7-9L464.5,633.7z"/>
	<path class="st0" d="M501.1,645.2h-32.5l0-0.8h1.1c2.6,0,4.5-1.9,4.6-4.3v-38c0-2.4-2-4.2-4.6-4.2h-1.1l0-0.8h23.4
		c3.2,0,7.6-0.7,8.9-1.3v9.1l-0.9,0v-1.2c0-2.2-1.6-4.1-4-4.1h-16.6V620h13.7c2.2,0,3.2-1.5,3.2-3.4v-1l0.9,0v11.2l-0.9,0v-1
		c0-1.8-1-3.3-3.1-3.4h-13.9v20.4h12.5c7.7-0.1,10.4-3.9,12.7-9h0.9L501.1,645.2z"/>
	<path class="st0" d="M561.3,597.2v0.8h-0.6c-2.1,0-4.7,1.4-6.3,4.7l-16.6,35.5c0,0-2.9,6.2-3.1,8.2H534l-19.8-43.7
		c-1.6-3.3-4-4.7-6.2-4.7h-0.6v-0.8h16.4v0.8h-0.6c-1.8,0-3.8,1.8-2.8,4.9l14.3,34.9l14.7-34.8c1.2-3.2-0.9-5-2.8-5h-0.6v-0.8H561.3
		z"/>
	<path class="st0" d="M565.4,645.2l0-0.8h1.1c3,0,5.4-1.9,5.4-4.3v-37.8c-0.1-2.4-2.5-4.3-5.4-4.3h-1.1l0-0.8h18.1v0.8h-1.1
		c-2.9,0-5.3,1.9-5.4,4.2v38c0.1,2.4,2.5,4.3,5.4,4.3h1.1l0,0.8H565.4z"/>
	<path class="st0" d="M634.6,639.7c1.6,3.3,4,4.7,6.2,4.7h0.6v0.8h-16.5v-0.8h0.6c1.8,0,3.9-1.7,2.8-4.8l-4.4-10.7h-20.3l-4.4,10.4
		c-1.2,3.2,0.9,5,2.8,5h0.6v0.8h-15.3v-0.8h0.6c2.1,0,4.6-1.4,6.3-4.6l16.6-35.5c0,0,2.9-6.2,3.1-8.2h0.8L634.6,639.7z M623,626.5
		l-9-21.9l-9.3,21.9H623z"/>
	<path class="st0" d="M671.6,597.1c3.2,0,7.6-0.7,8.9-1.3v9l-0.9,0v-1.2c0-2.2-1.6-4.1-4-4.1h-14.5v40.7c0.1,2.4,2.2,4.2,4.7,4.2
		h0.9l0,0.8h-16.5l0-0.8h0.9c2.6,0,4.7-1.9,4.7-4.3v-40.6h-14.5c-2.4,0-4,1.9-4,4.1v1.2l-0.9,0v-9c1.4,0.6,5.8,1.3,8.9,1.3H671.6z"
		/>
	<path class="st0" d="M720.7,645.2l0-0.8h0.9c2.5,0,4.6-1.9,4.7-4.3v-17.4h-29.6v17.4c0.1,2.4,2.1,4.3,4.7,4.3h0.9l0,0.8h-16.3
		l0-0.8h0.9c2.6,0,4.6-1.9,4.7-4.3v-37.8c0-2.4-2.1-4.3-4.7-4.3h-0.9l0-0.8h16.3l0,0.8h-0.9c-2.5,0-4.5,1.9-4.7,4.2v18.1h29.6v-18
		c0-2.4-2.1-4.3-4.7-4.3h-0.9l0-0.8h16.3l0,0.8h-0.9c-2.5,0-4.5,1.9-4.7,4.2v38c0.1,2.4,2.1,4.3,4.7,4.3h0.9l0,0.8L720.7,645.2z"/>
	<path class="st0" d="M788.1,639.7c1.6,3.3,4,4.7,6.2,4.7h0.6v0.8h-16.5v-0.8h0.6c1.8,0,3.9-1.7,2.8-4.8l-4.4-10.7h-20.3l-4.4,10.4
		c-1.2,3.2,0.9,5,2.8,5h0.6v0.8H741v-0.8h0.6c2.1,0,4.6-1.4,6.3-4.6l16.6-35.5c0,0,2.9-6.2,3.1-8.2h0.8L788.1,639.7z M776.6,626.5
		l-9-21.9l-9.3,21.9H776.6z"/>
	<path class="st0" d="M854.1,597.2l0,0.8h-1.3c-2.4,0-4.3,1.8-4.5,4v34.2c0,5.2,0.8,10.2,0.8,10.2h-0.8l-41.7-39.5v33.4
		c0,2.3,2,4.2,4.5,4.2h1.3l0,0.8h-15.1l0-0.8h1.3c2.4,0,4.4-1.9,4.5-4.2V606c0-5.5-0.8-10-0.8-10l0.9,0l41.6,39.2V602
		c-0.1-2.2-2.1-4-4.5-4H839l0-0.8L854.1,597.2z"/>
</g>
<g>
	<path class="st0" d="M558.5,688.2c0,2-0.4,3.4-1.1,4.1c-0.8,0.7-2.1,1-4.1,1H540c-2.2,0-3.7-0.4-4.3-1.2c-0.7-0.8-1-2.3-1-4.5
		l3.7-0.8v3.2h16.4V684h-14c-2.5,0-4.1-0.6-4.7-1.8c-0.4-0.7-0.6-2.5-0.6-5.4c0-2,0.4-3.4,1.1-4.1c0.7-0.7,2.1-1.1,4.1-1.1h12.1
		c2.1,0,3.5,0.4,4.2,1.1c0.7,0.7,1.1,2.1,1.1,4.2l-3.7,0.8v-2.9h-15.2v5.6h13.9c2,0,3.4,0.4,4.1,1c0.7,0.7,1.1,2.1,1.1,4.1V688.2z"
		/>
	<path class="st0" d="M590.6,671.7l-11.2,12.2v9.5h-4.1v-9.5L564,671.7h5l8.6,9.4l8.2-9.4H590.6z"/>
	<path class="st0" d="M619.9,688.2c0,2-0.4,3.4-1.1,4.1c-0.8,0.7-2.1,1-4.1,1h-13.2c-2.2,0-3.7-0.4-4.3-1.2c-0.7-0.8-1-2.3-1-4.5
		l3.7-0.8v3.2h16.4V684h-14c-2.5,0-4.1-0.6-4.7-1.8c-0.4-0.7-0.6-2.5-0.6-5.4c0-2,0.4-3.4,1.1-4.1c0.7-0.7,2.1-1.1,4.1-1.1h12.1
		c2.1,0,3.5,0.4,4.2,1.1c0.7,0.7,1.1,2.1,1.1,4.2l-3.7,0.8v-2.9h-15.2v5.6h13.9c2,0,3.4,0.4,4.1,1c0.7,0.7,1.1,2.1,1.1,4.1V688.2z"
		/>
	<path class="st0" d="M650,674.9h-10.3v18.5h-4.1v-18.5h-10.2v-3.2H650V674.9z"/>
	<path class="st0" d="M678.2,693.3h-22v-21.7H678v3.2h-17.7v5.6h10.7v3.2h-10.7v6.5h17.9V693.3z"/>
	<path class="st0" d="M713.7,693.3h-3.8v-14.8c0-1,0.1-1.9,0.3-2.8c-0.5,1.4-1,2.4-1.4,3l-8.3,11.2h-1.1l-8.6-11.1
		c-0.6-0.8-1.2-1.9-1.6-3.1c0.1,1.9,0.1,2.8,0.1,2.9v14.7h-3.4v-21.7h3.4l10.8,14.1l9.9-14.1h3.8V693.3z"/>
	<path class="st0" d="M746.9,688.2c0,2-0.4,3.4-1.1,4.1c-0.8,0.7-2.1,1-4.1,1h-13.2c-2.2,0-3.7-0.4-4.3-1.2c-0.7-0.8-1-2.3-1-4.5
		l3.7-0.8v3.2h16.4V684h-14c-2.5,0-4.1-0.6-4.7-1.8c-0.4-0.7-0.6-2.5-0.6-5.4c0-2,0.4-3.4,1.1-4.1c0.8-0.7,2.1-1.1,4.1-1.1h12.1
		c2.1,0,3.5,0.4,4.2,1.1c0.7,0.7,1.1,2.1,1.1,4.2l-3.7,0.8v-2.9h-15.2v5.6h13.9c2,0,3.4,0.4,4.1,1c0.8,0.7,1.1,2.1,1.1,4.1V688.2z"
		/>
</g>
<g>
	
		<linearGradient id="SVGID_00000003093847261303658050000016077981573947261577_" gradientUnits="userSpaceOnUse" x1="778.6525" y1="511.4677" x2="650.2192" y2="463.0284">
		<stop  offset="0" style="stop-color:#8C6034"/>
		<stop  offset="0.1432" style="stop-color:#A9824F"/>
		<stop  offset="0.4583" style="stop-color:#F2D893"/>
		<stop  offset="0.5112" style="stop-color:#FFE79F"/>
		<stop  offset="0.6661" style="stop-color:#E2C07C"/>
		<stop  offset="1" style="stop-color:#A67033"/>
	</linearGradient>
	<path style="fill:url(#SVGID_00000003093847261303658050000016077981573947261577_);" d="M725.7,465.3c-0.6,1.4-1.1,2.7-1.7,4
		c-3,6.5-7.7,11.8-13.5,15.5c-5.8,3.7-12.6,5.8-19.8,5.8h-14.5v9.4h39.1l12.5-34.7H725.7z"/>
	
		<linearGradient id="SVGID_00000049199854298973627160000011832033966690323890_" gradientUnits="userSpaceOnUse" x1="553.7297" y1="440.184" x2="683.7954" y2="440.184">
		<stop  offset="0" style="stop-color:#8C6034"/>
		<stop  offset="0.1432" style="stop-color:#A9824F"/>
		<stop  offset="0.4583" style="stop-color:#F2D893"/>
		<stop  offset="0.5112" style="stop-color:#FFE79F"/>
		<stop  offset="0.6661" style="stop-color:#E2C07C"/>
		<stop  offset="1" style="stop-color:#A67033"/>
	</linearGradient>
	<path style="fill:url(#SVGID_00000049199854298973627160000011832033966690323890_);" d="M661.9,513.7c2-4.1,3.1-8.9,3.5-13.7
		c0.2-2.5,0.3-4.9,0.1-7.4c-0.1-1.3-0.2-2.6-0.3-3.9c-1.6-13-8.7-24.8-18.2-33.7c-1.6-1.5-3.2-2.9-5-4.3l-1.9-1.5l-7.8-6.1v11.3
		c0,4.6,1.9,8.9,5.1,12.2c0,0,0,0,0,0c0.4,0.4,0.8,0.8,1.1,1.2c0.7,0.8,1.4,1.6,2.1,2.4c0.2,0.3,0.5,0.6,0.7,0.9
		c0.2,0.3,0.5,0.6,0.7,0.9c0.1,0.1,0.1,0.2,0.2,0.3c0.3,0.4,0.5,0.7,0.8,1.1c0.4,0.6,0.8,1.2,1.2,1.8c0.2,0.3,0.4,0.7,0.6,1
		c0.1,0.1,0.1,0.2,0.2,0.3c1.9,3.3,3.3,6.6,4.2,10c0.7,2.3,1.1,4.7,1.3,7h-25.1v-36.8v-18.9v-54.8c-2.1-0.6-4.4-0.9-6.6-0.9
		c-2.7,0-5.1,0.4-7.4,1.2v43.5l-7-5.5l-2.2-1.8c-7-5.6-9.4-12.7-9.4-19.4c0-9.1,4.4-16.9,11.6-21.3c2.1-1.3,4.4-2.3,7-2.9
		c2.3-0.6,4.8-0.9,7.4-0.9c2.3,0,4.5,0.2,6.6,0.7c2.5,0.5,4.8,1.4,7,2.5c0,0,0,0,0,0c1.5,0.8,2.7,1.9,3.8,3.2c2.3,3,3.7,5.1,3.7,5.1
		s3.3,4.6,3.8,11.2c1.1,3.1,3.8,4.1,11.6,6.2c10,2.8,12.5,11,16.1,12.1c3.6,1.1,8.3-0.9,8.6-4.2c0,0-3.8,1.3-6.2-0.1
		c-2.3-1.3-0.8-5.1-0.6-5.3c-0.2,0.2-2.7,2.7-5.2,1.7c-2.6-1.1-3.2-4.1-7.9-6.4c-2.4-1.2-4.7-3.1-6.8-5.1c2.2,1.2,4.9,2.7,9.4,5.7
		c5.7,3.9,12.3,2.3,12.3,2.3c-5.7-0.5-17.4-10.1-21.2-12c-2.1-1.1-4.2-1.3-5.7-1.4c-2-2.4-1.5-5.6-1.5-5.6s3,4.6,12.2,5.8
		c5.2,0.7,7.8,2.3,9,3.5c-0.3,0.9,0.2,2.4,0.2,2.4c0.1-0.6,0.4-0.9,0.7-1.2c0.7-0.5,1.5-0.5,1.5-0.5c-0.3,0.2-0.5,0.5-0.6,0.8
		c-0.5,1,0.1,2.1,0.1,2.1c0.1-1.4,1.5-1.8,2.1-1.9l0,0.1c-1.4,1.2-0.5,3.1-0.5,3.1c0.1-0.7,0.4-1.1,0.7-1.3c0.6-0.5,1.2-0.5,1.2-0.5
		c-0.2,0.2-0.3,0.4-0.3,0.7c-0.2,1,0.2,2.1,0.2,2.1c-0.1-0.8,0.3-1.4,0.8-1.7c0.6-0.4,1.3-0.4,1.5-0.2c0.1,0.1,0.4,0.3,0.7,0.5
		c0.1,0.1,0.3,0.2,0.4,0.2c0.1,0.1,0.2,0.2,0.2,0.3c0.1,0.3,0.3,0.6,0.4,1c0.1,0.3,0,0.6-0.2,0.7h0c-2.2,1.2-1.8,1.8-1.8,1.8
		c1.2-1,2.5-0.7,3.7,0.1c3.4,2,2,4.3,2,4.3c1.4-0.1,2.1-1,2.5-2c0,0,0,0,0,0s0-0.1,0-0.1c0.5-1.5,0.2-3.3,0.2-3.3h0
		c0-2.8-0.3-4.9-3-7.4c-4.6-4.1-6-2.8-11.9-9.2c-4.7-5.1-8.2-12.7-11.9-16.9c-0.6-0.7-1.3-1.4-1.9-1.9c-0.2-0.1-0.3-0.2-0.5-0.3
		c-16.4-12.1-27.6-10.4-27.6-10.4c10.2,2,19.5,11,23.1,14.8c-1.5,0.4-3.2-0.2-4.3-1.3c-9.3-9.1-16.6-9.3-16.6-9.3
		c5.1,2,9.4,6.5,12.1,10.1h-2.1c-1.5,0-3-0.2-4.4-0.5c0,0,0,0,0,0h0c-0.4-0.1-0.8-0.2-1.2-0.2c-0.4-0.1-0.7-0.1-1.1-0.2
		c-2.3-0.4-4.7-0.7-7-0.9v-34.7c0.1-7.5,6.2-13.5,13.7-13.5h2.7l0-2.1h-46.9l0,2.1h2.7c7.5,0,13.6,6,13.8,13.5v29.9c0,0,0,0,0,0
		c-8.2-3.3-18.4-5.3-29.1-2.3c0,0,21.3,3,14.6,10.8S564,379,559,402c0,0,10.3-10.7,17.5-8.4c7.1,2.3-13.9,24.6-4.1,43
		c0,0,0.6-18.1,9.5-18c0.3,0,0.7,0.1,0.9,0.2c0.5,0.1,0.9,0.4,1.2,0.7c0,0,0,0,0,0c0.7,0.7,1.3,1.9,1.8,3.3c0.2,0.7,0.4,1.4,0.6,2.2
		c2,9.8,1.6,28.1,13.8,36.3c0,0-7.2-20.8,2.8-21.4h0.1c0.8,0,1.5,0.3,2.1,0.7l6.3,4.9v38.7c-0.1,7.5-6.2,13.5-13.7,13.5h-2.7l0,2.1
		h55.6c-0.2,2.4-0.6,4.7-1.3,7c-2.2,7.9-7.1,15-14.2,19.9c-3.4,2.4-7.4,4.3-11.7,5.6c-2.6,0.8-5.4,1.3-8.3,1.6c-0.3,0-0.7,0.1-1,0.1
		c-0.4,0-0.8,0.1-1.3,0.1c-0.8,0-1.7,0.1-2.5,0.1c-0.4,0-0.9,0-1.3,0c-0.7,0-1.5-0.1-2.2-0.1c-0.7,0-1.4-0.1-2.1-0.2
		c-0.4,0-0.7-0.1-1.1-0.1c-0.3,0-0.7-0.1-1.1-0.2c-0.4-0.1-0.7-0.1-1-0.2c-0.6-0.1-1.1-0.2-1.7-0.3c-0.4-0.1-0.8-0.2-1.2-0.3
		c-0.4-0.1-0.8-0.2-1.2-0.3c-0.1,0-0.3-0.1-0.4-0.1c-0.4-0.1-0.8-0.2-1.2-0.4c-0.9-0.3-1.8-0.6-2.6-1c-0.2-0.1-0.4-0.2-0.5-0.2
		c0,0-0.1,0-0.1,0c-0.2-0.1-0.3-0.1-0.4-0.2c-0.1,0-0.1-0.1-0.2-0.1c-0.4-0.2-0.8-0.4-1.2-0.6c0,0-0.1,0-0.1,0
		c-0.4-0.2-0.7-0.4-1.1-0.6c-0.8-0.4-1.6-0.9-2.3-1.3c-0.4-0.2-0.7-0.4-1.1-0.7c-1.5-1-2.9-2.1-4.2-3.3c-0.9-0.8-1.8-1.7-2.6-2.6
		c-0.2-0.2-0.4-0.5-0.6-0.7c-0.2-0.2-0.4-0.5-0.6-0.7c-5.2-6.5-8-15-8.3-23.2c-0.5-11.6,4.2-22.9,11.2-32c-0.3,0.3-0.6,0.6-1,0.9
		c-6.1,5.6-10.8,12.6-13.6,20.4c-1.4,3.9-2.4,7.8-4.4,11.5c-2.2,4.2-4.7,8.2-6.3,12.6c-2.9,7.8-2.7,15.9,1.4,23.2
		c0,0,0.7-14.8,7.6-17.7c6.9-2.9,5.7,27.6,25.1,35c0,0-0.1-0.1-0.1-0.1c-0.4-0.4-1.6-1.8-2.8-3.8c0,0,0,0,0,0c0,0,0-0.1-0.1-0.1
		c-2.4-4.3,2-9.1,6.5-7.3c5.7,2,10.8,5.5,14.6,10.3c5.3,6.7,12.4,12.5,23.8,12.2c0,0-8.8-5-11.6-11c-0.6-1.2-0.9-2.5-0.8-3.8
		c0-0.4,0.1-0.7,0.3-1c3-4.9,27.7,7.7,42.2-5.5c0,0-17.6,3.9-19.7-4.7c0-0.2-0.1-0.3-0.1-0.5c0-0.2,0-0.3,0-0.4c0.1-2,2.1-3.5,5.2-5
		c1.5-0.7,3.2-1.4,5-2.2c9.4-3.8,22.5-8.5,26.6-20C678.8,507.5,668.2,514.5,661.9,513.7z M657.7,379.1c1.6,0.5,2.5,2.1,3.6,3.8
		c1,1.6,2.2,2.3,2.4,2.4c-2.4-0.5-6.1-1.5-7.1-3.7c-1-2-3.1-4-3.3-4.2C653.3,377.6,656.1,378.6,657.7,379.1z"/>
</g>
</svg>
